<svg xmlns="http://www.w3.org/2000/svg" xmlns:xlink="http://www.w3.org/1999/xlink" width="350" height="350" viewBox="0 0 350 350">
  <defs>
    <style>
      .cls-1 {
        fill: url(#linear-gradient);
      }

      .cls-2 {
        fill: #fff;
        fill-rule: evenodd;
      }
    </style>
    <linearGradient id="linear-gradient" y1="350" x2="350" gradientUnits="userSpaceOnUse">
      <stop offset="0" stop-color="#202687"/>
      <stop offset="0.001" stop-color="#202687"/>
      <stop offset="1" stop-color="#f080f3"/>
    </linearGradient>
  </defs>
  <rect id="BG" class="cls-1" width="350" height="350" rx="20" ry="20"/>
  <path id="Bars" class="cls-2" d="M304.624,147.873l-42.729,1.91,7.528,11.721-71.306,45.265-70.668-29.494L45.383,211.239l5.684,13.584L127.418,193.2l72.119,30.115,77.8-49.425,7.544,11.72ZM192.991,66.015V197.286l4.06,1.71L247,167.077V66.015H192.991ZM134.014,173.122L189,195V106H134.014v67.126ZM75.006,191.014l52.426-21.5L130,170.57V140.011H75.006v51Z"/>
  <path id="RankMath" class="cls-2" d="M211.48,283.427l-0.047-23.143-11.477,19.155h-2.89L185.6,260.581v22.846h-6.19V248.511h5.341l13.862,23.143,13.619-23.143h5.341l0.047,34.916H211.48Zm37.254-15.613v15.613h-5.886v-3.24c-1.5,2.3-4.392,3.59-8.379,3.59-6.083,0-9.928-3.341-9.928-7.981,0-4.439,3-7.916,11.073-7.916H242.5v-0.416c0-3.637-2.2-5.785-6.634-5.785a13.209,13.209,0,0,0-8.076,2.646l-2.445-4.539c2.842-2.2,6.984-3.294,11.274-3.294C244.3,256.492,248.734,260.165,248.734,267.814ZM242.5,275.1v-3.067h-6.432c-4.243,0-5.388,1.6-5.388,3.56,0,2.243,1.9,3.691,5.091,3.691C238.818,279.238,241.453,277.843,242.5,275.1Zm30.223,6.878a9.846,9.846,0,0,1-5.982,1.781c-5.839,0-9.18-3.092-9.18-8.979v-12.8h-4.391v-4.99h4.391v-6.083H263.8v6.083h7.121v4.99H263.8v12.67c0,2.593,1.293,3.987,3.691,3.987a5.593,5.593,0,0,0,3.489-1.1Zm31.373-13.815v15.263h-6.237V268.965c0-4.746-2.373-7.037-6.331-7.037-4.439,0-7.436,2.694-7.436,8.035v13.464h-6.231V246.416h6.231v13.47a11.9,11.9,0,0,1,8.9-3.394C299.346,256.492,304.093,260.165,304.093,268.164Zm-234.2,15.263L62.772,273.22a12.621,12.621,0,0,1-1.347.054H53.533v10.153H47.047V248.511H61.39c9.174,0,14.865,4.688,14.865,12.42a11.166,11.166,0,0,1-7.436,11.026l8.058,11.47H69.893ZM61.111,254H53.533v13.916h7.578c5.691,0,8.628-2.594,8.628-6.985S66.8,254,61.111,254Zm43.841,13.814v15.613H99.065v-3.24c-1.5,2.3-4.391,3.59-8.379,3.59-6.083,0-9.928-3.341-9.928-7.981,0-4.439,3-7.928,11.073-7.928h6.884v-0.4c0-3.637-2.2-5.785-6.634-5.785A13.21,13.21,0,0,0,84,264.325l-2.439-4.539c2.843-2.2,6.984-3.294,11.275-3.294C100.513,256.492,104.952,260.165,104.952,267.814ZM98.715,275.1v-3.067H92.282c-4.237,0-5.388,1.6-5.388,3.56,0,2.243,1.9,3.691,5.092,3.691C95.024,279.238,97.671,277.843,98.715,275.1Zm40.453-6.937v15.263h-6.237V268.965c0-4.746-2.344-7.037-6.338-7.037-4.438,0-7.429,2.694-7.429,8.035v13.464h-6.237V256.8h5.934v3.441c2.048-2.444,5.293-3.744,9.18-3.744C134.426,256.492,139.168,260.165,139.168,268.164Zm18.8,3.87-4.641,4.391v7H147.09V246.416h6.236v22.348L166.245,256.8h7.483L162.6,267.969l12.171,15.458h-7.578Z"/>
</svg>
